<svg width="301" height="301" viewBox="0 0 301 301" fill="none" xmlns="http://www.w3.org/2000/svg">
<path d="M8.69942 4.34971C8.69942 6.75199 6.75199 8.69942 4.34971 8.69942C1.94743 8.69942 0 6.75199 0 4.34971C0 1.94743 1.94743 0 4.34971 0C6.75199 0 8.69942 1.94743 8.69942 4.34971Z" fill="#DCDDDE"/>
<path d="M8.69942 171.379C8.69942 173.781 6.75199 175.728 4.34971 175.728C1.94743 175.728 0 173.781 0 171.379C0 168.976 1.94743 167.029 4.34971 167.029C6.75199 167.029 8.69942 168.976 8.69942 171.379Z" fill="#DCDDDE"/>
<path d="M8.69942 87.8642C8.69942 90.2664 6.75199 92.2139 4.34971 92.2139C1.94743 92.2139 0 90.2664 0 87.8642C0 85.4619 1.94743 83.5145 4.34971 83.5145C6.75199 83.5145 8.69942 85.4619 8.69942 87.8642Z" fill="#DCDDDE"/>
<path d="M8.69942 254.893C8.69942 257.295 6.75199 259.243 4.34971 259.243C1.94743 259.243 0 257.295 0 254.893C0 252.491 1.94743 250.543 4.34971 250.543C6.75199 250.543 8.69942 252.491 8.69942 254.893Z" fill="#DCDDDE"/>
<path d="M8.69942 46.1069C8.69942 48.5092 6.75199 50.4566 4.34971 50.4566C1.94743 50.4566 0 48.5092 0 46.1069C0 43.7047 1.94743 41.7572 4.34971 41.7572C6.75199 41.7572 8.69942 43.7047 8.69942 46.1069Z" fill="#DCDDDE"/>
<path d="M8.69942 213.136C8.69942 215.538 6.75199 217.486 4.34971 217.486C1.94743 217.486 0 215.538 0 213.136C0 210.734 1.94743 208.786 4.34971 208.786C6.75199 208.786 8.69942 210.734 8.69942 213.136Z" fill="#DCDDDE"/>
<path d="M8.69942 129.621C8.69942 132.024 6.75199 133.971 4.34971 133.971C1.94743 133.971 0 132.024 0 129.621C0 127.219 1.94743 125.272 4.34971 125.272C6.75199 125.272 8.69942 127.219 8.69942 129.621Z" fill="#DCDDDE"/>
<path d="M8.69942 296.65C8.69942 299.053 6.75199 301 4.34971 301C1.94743 301 0 299.053 0 296.65C0 294.248 1.94743 292.301 4.34971 292.301C6.75199 292.301 8.69942 294.248 8.69942 296.65Z" fill="#DCDDDE"/>
<path d="M175.728 4.34971C175.728 6.75199 173.781 8.69942 171.379 8.69942C168.976 8.69942 167.029 6.75199 167.029 4.34971C167.029 1.94743 168.976 0 171.379 0C173.781 0 175.728 1.94743 175.728 4.34971Z" fill="#DCDDDE"/>
<path d="M175.728 171.379C175.728 173.781 173.781 175.728 171.379 175.728C168.976 175.728 167.029 173.781 167.029 171.379C167.029 168.976 168.976 167.029 171.379 167.029C173.781 167.029 175.728 168.976 175.728 171.379Z" fill="#DCDDDE"/>
<path d="M175.728 87.8642C175.728 90.2664 173.781 92.2139 171.379 92.2139C168.976 92.2139 167.029 90.2664 167.029 87.8642C167.029 85.4619 168.976 83.5145 171.379 83.5145C173.781 83.5145 175.728 85.4619 175.728 87.8642Z" fill="#DCDDDE"/>
<path d="M175.728 254.893C175.728 257.295 173.781 259.243 171.379 259.243C168.976 259.243 167.029 257.295 167.029 254.893C167.029 252.491 168.976 250.543 171.379 250.543C173.781 250.543 175.728 252.491 175.728 254.893Z" fill="#DCDDDE"/>
<path d="M175.728 46.1069C175.728 48.5092 173.781 50.4566 171.379 50.4566C168.976 50.4566 167.029 48.5092 167.029 46.1069C167.029 43.7047 168.976 41.7572 171.379 41.7572C173.781 41.7572 175.728 43.7047 175.728 46.1069Z" fill="#DCDDDE"/>
<path d="M175.728 213.136C175.728 215.538 173.781 217.486 171.379 217.486C168.976 217.486 167.029 215.538 167.029 213.136C167.029 210.734 168.976 208.786 171.379 208.786C173.781 208.786 175.728 210.734 175.728 213.136Z" fill="#DCDDDE"/>
<path d="M175.728 129.621C175.728 132.024 173.781 133.971 171.379 133.971C168.976 133.971 167.029 132.024 167.029 129.621C167.029 127.219 168.976 125.272 171.379 125.272C173.781 125.272 175.728 127.219 175.728 129.621Z" fill="#DCDDDE"/>
<path d="M175.728 296.65C175.728 299.053 173.781 301 171.379 301C168.976 301 167.029 299.053 167.029 296.65C167.029 294.248 168.976 292.301 171.379 292.301C173.781 292.301 175.728 294.248 175.728 296.65Z" fill="#DCDDDE"/>
<path d="M50.4566 4.34971C50.4566 6.75199 48.5092 8.69942 46.1069 8.69942C43.7047 8.69942 41.7572 6.75199 41.7572 4.34971C41.7572 1.94743 43.7047 0 46.1069 0C48.5092 0 50.4566 1.94743 50.4566 4.34971Z" fill="#DCDDDE"/>
<path d="M50.4566 171.379C50.4566 173.781 48.5092 175.728 46.1069 175.728C43.7047 175.728 41.7572 173.781 41.7572 171.379C41.7572 168.976 43.7047 167.029 46.1069 167.029C48.5092 167.029 50.4566 168.976 50.4566 171.379Z" fill="#DCDDDE"/>
<path d="M50.4566 87.8642C50.4566 90.2664 48.5092 92.2139 46.1069 92.2139C43.7047 92.2139 41.7572 90.2664 41.7572 87.8642C41.7572 85.4619 43.7047 83.5145 46.1069 83.5145C48.5092 83.5145 50.4566 85.4619 50.4566 87.8642Z" fill="#DCDDDE"/>
<path d="M50.4566 254.893C50.4566 257.295 48.5092 259.243 46.1069 259.243C43.7047 259.243 41.7572 257.295 41.7572 254.893C41.7572 252.491 43.7047 250.543 46.1069 250.543C48.5092 250.543 50.4566 252.491 50.4566 254.893Z" fill="#DCDDDE"/>
<path d="M50.4566 46.1069C50.4566 48.5092 48.5092 50.4566 46.1069 50.4566C43.7047 50.4566 41.7572 48.5092 41.7572 46.1069C41.7572 43.7047 43.7047 41.7572 46.1069 41.7572C48.5092 41.7572 50.4566 43.7047 50.4566 46.1069Z" fill="#DCDDDE"/>
<path d="M50.4566 213.136C50.4566 215.538 48.5092 217.486 46.1069 217.486C43.7047 217.486 41.7572 215.538 41.7572 213.136C41.7572 210.734 43.7047 208.786 46.1069 208.786C48.5092 208.786 50.4566 210.734 50.4566 213.136Z" fill="#DCDDDE"/>
<path d="M50.4566 129.621C50.4566 132.024 48.5092 133.971 46.1069 133.971C43.7047 133.971 41.7572 132.024 41.7572 129.621C41.7572 127.219 43.7047 125.272 46.1069 125.272C48.5092 125.272 50.4566 127.219 50.4566 129.621Z" fill="#DCDDDE"/>
<path d="M50.4566 296.65C50.4566 299.053 48.5092 301 46.1069 301C43.7047 301 41.7572 299.053 41.7572 296.65C41.7572 294.248 43.7047 292.301 46.1069 292.301C48.5092 292.301 50.4566 294.248 50.4566 296.65Z" fill="#DCDDDE"/>
<path d="M217.486 4.34971C217.486 6.75199 215.538 8.69942 213.136 8.69942C210.734 8.69942 208.786 6.75199 208.786 4.34971C208.786 1.94743 210.734 0 213.136 0C215.538 0 217.486 1.94743 217.486 4.34971Z" fill="#DCDDDE"/>
<path d="M217.486 171.379C217.486 173.781 215.538 175.728 213.136 175.728C210.734 175.728 208.786 173.781 208.786 171.379C208.786 168.976 210.734 167.029 213.136 167.029C215.538 167.029 217.486 168.976 217.486 171.379Z" fill="#DCDDDE"/>
<path d="M217.486 87.8642C217.486 90.2664 215.538 92.2139 213.136 92.2139C210.734 92.2139 208.786 90.2664 208.786 87.8642C208.786 85.4619 210.734 83.5145 213.136 83.5145C215.538 83.5145 217.486 85.4619 217.486 87.8642Z" fill="#DCDDDE"/>
<path d="M217.486 254.893C217.486 257.295 215.538 259.243 213.136 259.243C210.734 259.243 208.786 257.295 208.786 254.893C208.786 252.491 210.734 250.543 213.136 250.543C215.538 250.543 217.486 252.491 217.486 254.893Z" fill="#DCDDDE"/>
<path d="M217.486 46.1069C217.486 48.5092 215.538 50.4566 213.136 50.4566C210.734 50.4566 208.786 48.5092 208.786 46.1069C208.786 43.7047 210.734 41.7572 213.136 41.7572C215.538 41.7572 217.486 43.7047 217.486 46.1069Z" fill="#DCDDDE"/>
<path d="M217.486 213.136C217.486 215.538 215.538 217.486 213.136 217.486C210.734 217.486 208.786 215.538 208.786 213.136C208.786 210.734 210.734 208.786 213.136 208.786C215.538 208.786 217.486 210.734 217.486 213.136Z" fill="#DCDDDE"/>
<path d="M217.486 129.621C217.486 132.024 215.538 133.971 213.136 133.971C210.734 133.971 208.786 132.024 208.786 129.621C208.786 127.219 210.734 125.272 213.136 125.272C215.538 125.272 217.486 127.219 217.486 129.621Z" fill="#DCDDDE"/>
<path d="M217.486 296.65C217.486 299.053 215.538 301 213.136 301C210.734 301 208.786 299.053 208.786 296.65C208.786 294.248 210.734 292.301 213.136 292.301C215.538 292.301 217.486 294.248 217.486 296.65Z" fill="#DCDDDE"/>
<path d="M92.2139 4.34971C92.2139 6.75199 90.2664 8.69942 87.8642 8.69942C85.4619 8.69942 83.5145 6.75199 83.5145 4.34971C83.5145 1.94743 85.4619 0 87.8642 0C90.2664 0 92.2139 1.94743 92.2139 4.34971Z" fill="#DCDDDE"/>
<path d="M92.2139 171.379C92.2139 173.781 90.2664 175.728 87.8642 175.728C85.4619 175.728 83.5145 173.781 83.5145 171.379C83.5145 168.976 85.4619 167.029 87.8642 167.029C90.2664 167.029 92.2139 168.976 92.2139 171.379Z" fill="#DCDDDE"/>
<path d="M92.2139 87.8642C92.2139 90.2664 90.2664 92.2139 87.8642 92.2139C85.4619 92.2139 83.5145 90.2664 83.5145 87.8642C83.5145 85.4619 85.4619 83.5145 87.8642 83.5145C90.2664 83.5145 92.2139 85.4619 92.2139 87.8642Z" fill="#DCDDDE"/>
<path d="M92.2139 254.893C92.2139 257.295 90.2664 259.243 87.8642 259.243C85.4619 259.243 83.5145 257.295 83.5145 254.893C83.5145 252.491 85.4619 250.543 87.8642 250.543C90.2664 250.543 92.2139 252.491 92.2139 254.893Z" fill="#DCDDDE"/>
<path d="M92.2139 46.1069C92.2139 48.5092 90.2664 50.4566 87.8642 50.4566C85.4619 50.4566 83.5145 48.5092 83.5145 46.1069C83.5145 43.7047 85.4619 41.7572 87.8642 41.7572C90.2664 41.7572 92.2139 43.7047 92.2139 46.1069Z" fill="#DCDDDE"/>
<path d="M92.2139 213.136C92.2139 215.538 90.2664 217.486 87.8642 217.486C85.4619 217.486 83.5145 215.538 83.5145 213.136C83.5145 210.734 85.4619 208.786 87.8642 208.786C90.2664 208.786 92.2139 210.734 92.2139 213.136Z" fill="#DCDDDE"/>
<path d="M92.2139 129.621C92.2139 132.024 90.2664 133.971 87.8642 133.971C85.4619 133.971 83.5145 132.024 83.5145 129.621C83.5145 127.219 85.4619 125.272 87.8642 125.272C90.2664 125.272 92.2139 127.219 92.2139 129.621Z" fill="#DCDDDE"/>
<path d="M92.2139 296.65C92.2139 299.053 90.2664 301 87.8642 301C85.4619 301 83.5145 299.053 83.5145 296.65C83.5145 294.248 85.4619 292.301 87.8642 292.301C90.2664 292.301 92.2139 294.248 92.2139 296.65Z" fill="#DCDDDE"/>
<path d="M259.243 4.34971C259.243 6.75199 257.295 8.69942 254.893 8.69942C252.491 8.69942 250.543 6.75199 250.543 4.34971C250.543 1.94743 252.491 0 254.893 0C257.295 0 259.243 1.94743 259.243 4.34971Z" fill="#DCDDDE"/>
<path d="M259.243 171.379C259.243 173.781 257.295 175.728 254.893 175.728C252.491 175.728 250.543 173.781 250.543 171.379C250.543 168.976 252.491 167.029 254.893 167.029C257.295 167.029 259.243 168.976 259.243 171.379Z" fill="#DCDDDE"/>
<path d="M259.243 87.8642C259.243 90.2664 257.295 92.2139 254.893 92.2139C252.491 92.2139 250.543 90.2664 250.543 87.8642C250.543 85.4619 252.491 83.5145 254.893 83.5145C257.295 83.5145 259.243 85.4619 259.243 87.8642Z" fill="#DCDDDE"/>
<path d="M259.243 254.893C259.243 257.295 257.295 259.243 254.893 259.243C252.491 259.243 250.543 257.295 250.543 254.893C250.543 252.491 252.491 250.543 254.893 250.543C257.295 250.543 259.243 252.491 259.243 254.893Z" fill="#DCDDDE"/>
<path d="M259.243 46.1069C259.243 48.5092 257.295 50.4566 254.893 50.4566C252.491 50.4566 250.543 48.5092 250.543 46.1069C250.543 43.7047 252.491 41.7572 254.893 41.7572C257.295 41.7572 259.243 43.7047 259.243 46.1069Z" fill="#DCDDDE"/>
<path d="M259.243 213.136C259.243 215.538 257.295 217.486 254.893 217.486C252.491 217.486 250.543 215.538 250.543 213.136C250.543 210.734 252.491 208.786 254.893 208.786C257.295 208.786 259.243 210.734 259.243 213.136Z" fill="#DCDDDE"/>
<path d="M259.243 129.621C259.243 132.024 257.295 133.971 254.893 133.971C252.491 133.971 250.543 132.024 250.543 129.621C250.543 127.219 252.491 125.272 254.893 125.272C257.295 125.272 259.243 127.219 259.243 129.621Z" fill="#DCDDDE"/>
<path d="M259.243 296.65C259.243 299.053 257.295 301 254.893 301C252.491 301 250.543 299.053 250.543 296.65C250.543 294.248 252.491 292.301 254.893 292.301C257.295 292.301 259.243 294.248 259.243 296.65Z" fill="#DCDDDE"/>
<path d="M133.971 4.34971C133.971 6.75199 132.024 8.69942 129.621 8.69942C127.219 8.69942 125.272 6.75199 125.272 4.34971C125.272 1.94743 127.219 0 129.621 0C132.024 0 133.971 1.94743 133.971 4.34971Z" fill="#DCDDDE"/>
<path d="M133.971 171.379C133.971 173.781 132.024 175.728 129.621 175.728C127.219 175.728 125.272 173.781 125.272 171.379C125.272 168.976 127.219 167.029 129.621 167.029C132.024 167.029 133.971 168.976 133.971 171.379Z" fill="#DCDDDE"/>
<path d="M133.971 87.8642C133.971 90.2664 132.024 92.2139 129.621 92.2139C127.219 92.2139 125.272 90.2664 125.272 87.8642C125.272 85.4619 127.219 83.5145 129.621 83.5145C132.024 83.5145 133.971 85.4619 133.971 87.8642Z" fill="#DCDDDE"/>
<path d="M133.971 254.893C133.971 257.295 132.024 259.243 129.621 259.243C127.219 259.243 125.272 257.295 125.272 254.893C125.272 252.491 127.219 250.543 129.621 250.543C132.024 250.543 133.971 252.491 133.971 254.893Z" fill="#DCDDDE"/>
<path d="M133.971 46.1069C133.971 48.5092 132.024 50.4566 129.621 50.4566C127.219 50.4566 125.272 48.5092 125.272 46.1069C125.272 43.7047 127.219 41.7572 129.621 41.7572C132.024 41.7572 133.971 43.7047 133.971 46.1069Z" fill="#DCDDDE"/>
<path d="M133.971 213.136C133.971 215.538 132.024 217.486 129.621 217.486C127.219 217.486 125.272 215.538 125.272 213.136C125.272 210.734 127.219 208.786 129.621 208.786C132.024 208.786 133.971 210.734 133.971 213.136Z" fill="#DCDDDE"/>
<path d="M133.971 129.621C133.971 132.024 132.024 133.971 129.621 133.971C127.219 133.971 125.272 132.024 125.272 129.621C125.272 127.219 127.219 125.272 129.621 125.272C132.024 125.272 133.971 127.219 133.971 129.621Z" fill="#DCDDDE"/>
<path d="M133.971 296.65C133.971 299.053 132.024 301 129.621 301C127.219 301 125.272 299.053 125.272 296.65C125.272 294.248 127.219 292.301 129.621 292.301C132.024 292.301 133.971 294.248 133.971 296.65Z" fill="#DCDDDE"/>
<path d="M301 4.34971C301 6.75199 299.053 8.69942 296.65 8.69942C294.248 8.69942 292.301 6.75199 292.301 4.34971C292.301 1.94743 294.248 0 296.65 0C299.053 0 301 1.94743 301 4.34971Z" fill="#DCDDDE"/>
<path d="M301 171.379C301 173.781 299.053 175.728 296.65 175.728C294.248 175.728 292.301 173.781 292.301 171.379C292.301 168.976 294.248 167.029 296.65 167.029C299.053 167.029 301 168.976 301 171.379Z" fill="#DCDDDE"/>
<path d="M301 87.8642C301 90.2664 299.053 92.2139 296.65 92.2139C294.248 92.2139 292.301 90.2664 292.301 87.8642C292.301 85.4619 294.248 83.5145 296.65 83.5145C299.053 83.5145 301 85.4619 301 87.8642Z" fill="#DCDDDE"/>
<path d="M301 254.893C301 257.295 299.053 259.243 296.65 259.243C294.248 259.243 292.301 257.295 292.301 254.893C292.301 252.491 294.248 250.543 296.65 250.543C299.053 250.543 301 252.491 301 254.893Z" fill="#DCDDDE"/>
<path d="M301 46.1069C301 48.5092 299.053 50.4566 296.65 50.4566C294.248 50.4566 292.301 48.5092 292.301 46.1069C292.301 43.7047 294.248 41.7572 296.65 41.7572C299.053 41.7572 301 43.7047 301 46.1069Z" fill="#DCDDDE"/>
<path d="M301 213.136C301 215.538 299.053 217.486 296.65 217.486C294.248 217.486 292.301 215.538 292.301 213.136C292.301 210.734 294.248 208.786 296.65 208.786C299.053 208.786 301 210.734 301 213.136Z" fill="#DCDDDE"/>
<path d="M301 129.621C301 132.024 299.053 133.971 296.65 133.971C294.248 133.971 292.301 132.024 292.301 129.621C292.301 127.219 294.248 125.272 296.65 125.272C299.053 125.272 301 127.219 301 129.621Z" fill="#DCDDDE"/>
<path d="M301 296.65C301 299.053 299.053 301 296.65 301C294.248 301 292.301 299.053 292.301 296.65C292.301 294.248 294.248 292.301 296.65 292.301C299.053 292.301 301 294.248 301 296.65Z" fill="#DCDDDE"/>
</svg>
